<svg width="47" height="41" viewBox="0 0 47 41" fill="none" xmlns="http://www.w3.org/2000/svg">
<g id="Outlook Logo">
<path id="Vector" d="M40.6965 0H17.7679C16.185 0 14.9019 1.28318 14.9019 2.86607V37.2589C14.9019 38.8418 16.185 40.125 17.7679 40.125H40.6965C42.2794 40.125 43.5626 38.8418 43.5626 37.2589V2.86607C43.5626 1.28318 42.2794 0 40.6965 0Z" fill="#1066B5"/>
<path id="Vector_2" d="M40.6965 0H17.7679C16.185 0 14.9019 1.28318 14.9019 2.86607V37.2589C14.9019 38.8418 16.185 40.125 17.7679 40.125H40.6965C42.2794 40.125 43.5626 38.8418 43.5626 37.2589V2.86607C43.5626 1.28318 42.2794 0 40.6965 0Z" fill="url(#paint0_linear_10_297)"/>
<path id="Vector_3" d="M14.9019 4.29907H29.2322V18.6294H14.9019V4.29907Z" fill="#32A9E7"/>
<path id="Vector_4" d="M14.9019 18.6295H29.2322V32.9599H14.9019V18.6295Z" fill="#167EB4"/>
<path id="Vector_5" d="M29.2319 18.6295H43.5623V32.9599H29.2319V18.6295Z" fill="#32A9E7"/>
<path id="Vector_6" d="M29.2319 4.29907H43.5623V18.6294H29.2319V4.29907Z" fill="#58D9FD"/>
<g id="Mask group">
<mask id="mask0_10_297" style="mask-type:luminance" maskUnits="userSpaceOnUse" x="12" y="17" width="35" height="24">
<g id="Group">
<path id="Vector_7" d="M12.0356 17.1964H43.5624C45.1454 17.1964 46.4285 18.4796 46.4285 20.0625V37.2589C46.4285 38.8418 45.1454 40.125 43.5624 40.125H14.9017C13.3188 40.125 12.0356 38.8418 12.0356 37.2589V17.1964Z" fill="url(#paint1_linear_10_297)"/>
</g>
</mask>
<g mask="url(#mask0_10_297)">
<g id="Group_2">
<path id="Vector_8" d="M46.4281 17.1964V22.9286H43.562V17.1964H46.4281Z" fill="#135298"/>
<path id="Vector_9" d="M46.4284 40.125V20.0625L10.6025 40.125H46.4284Z" fill="url(#paint2_linear_10_297)"/>
<path id="Vector_10" d="M12.0356 40.125V20.0625L47.8615 40.125H12.0356Z" fill="url(#paint3_linear_10_297)"/>
</g>
</g>
</g>
<path id="Vector_11" d="M12.0356 14.3304C12.0356 11.956 13.9604 10.0312 16.3348 10.0312H24.933C27.3074 10.0312 29.2321 11.956 29.2321 14.3304V31.5268C29.2321 33.9012 27.3074 35.8259 24.933 35.8259H12.0356V14.3304Z" fill="black" fill-opacity="0.3"/>
<path id="Vector_12" d="M23.4999 7.16516H3.43736C1.85447 7.16516 0.571289 8.44835 0.571289 10.0312V30.0937C0.571289 31.6766 1.85447 32.9598 3.43736 32.9598H23.4999C25.0828 32.9598 26.3659 31.6766 26.3659 30.0937V10.0312C26.3659 8.44835 25.0828 7.16516 23.4999 7.16516Z" fill="url(#paint4_linear_10_297)"/>
<path id="Vector_13" d="M20.6336 20.1618V19.9235C20.6336 15.7952 17.6632 12.8973 13.4911 12.8973C9.29627 12.8973 6.30322 15.815 6.30322 19.9632V20.2015C6.30322 24.3298 9.27359 27.2277 13.4684 27.2277C17.6405 27.2277 20.6336 24.31 20.6336 20.1618ZM17.2551 20.2015C17.2551 22.9405 15.7133 24.5879 13.4911 24.5879C11.269 24.5879 9.70442 22.9008 9.70442 20.1618V19.9235C9.70442 17.1846 11.2463 15.5371 13.4684 15.5371C15.6678 15.5371 17.2551 17.2242 17.2551 19.9632V20.2015Z" fill="white"/>
</g>
<defs>
<linearGradient id="paint0_linear_10_297" x1="14.9019" y1="20.0625" x2="43.5626" y2="20.0625" gradientUnits="userSpaceOnUse">
<stop stop-color="#064484"/>
<stop offset="1" stop-color="#0F65B5"/>
</linearGradient>
<linearGradient id="paint1_linear_10_297" x1="12.0356" y1="35.4951" x2="46.4285" y2="35.4951" gradientUnits="userSpaceOnUse">
<stop stop-color="#1B366F"/>
<stop offset="1" stop-color="#2657B0"/>
</linearGradient>
<linearGradient id="paint2_linear_10_297" x1="46.4284" y1="30.0938" x2="12.0356" y2="30.0938" gradientUnits="userSpaceOnUse">
<stop stop-color="#44DCFD"/>
<stop offset="0.453125" stop-color="#259ED0"/>
</linearGradient>
<linearGradient id="paint3_linear_10_297" x1="12.0356" y1="30.0938" x2="46.4285" y2="30.0938" gradientUnits="userSpaceOnUse">
<stop stop-color="#259ED0"/>
<stop offset="1" stop-color="#44DCFD"/>
</linearGradient>
<linearGradient id="paint4_linear_10_297" x1="0.571289" y1="20.0625" x2="26.3659" y2="20.0625" gradientUnits="userSpaceOnUse">
<stop stop-color="#064484"/>
<stop offset="1" stop-color="#0F65B5"/>
</linearGradient>
</defs>
</svg>
